<?xml version="1.0" standalone="no"?><!DOCTYPE svg PUBLIC "-//W3C//DTD SVG 1.1//EN" "http://www.w3.org/Graphics/SVG/1.1/DTD/svg11.dtd"><svg class="icon" width="200px" height="200.00px" viewBox="0 0 1024 1024" version="1.1" xmlns="http://www.w3.org/2000/svg"><path fill="#2c2c2c" d="M645.037 192.753 645.037 192.753 645.037 192.753 645.037 192.753zM511.998 0.002c-20.158 0-40.316 0-56.44 4.015-48.377 4.015-92.724 16.063-133.039 32.125 0 0 346.708 341.332 354.769 353.379L677.288 28.111c-12.093-4.015-20.158-8.032-32.252-8.032C604.72 8.033 560.375 0 511.996 0l0 0L511.998 0.002zM645.037 192.753 645.037 192.753 645.037 192.753 645.037 192.753 645.037 192.753zM830.483 377.475 830.483 377.475 830.483 377.475 830.483 377.475zM874.831 148.582c-12.093-12.045-28.219-28.108-44.346-40.158-36.284-28.108-76.599-52.204-116.913-68.267 0 0 4.031 485.897 0 501.959l258.015-257.004c-4.031-8.032-12.093-20.079-16.126-28.108-20.158-40.158-48.377-76.299-80.629-108.424l0 0L874.831 148.582zM830.483 377.475 830.483 377.475 830.483 377.475 830.483 377.475 830.483 377.475zM834.517 646.526 834.517 646.526 834.517 646.526 834.517 646.526zM987.712 325.271c0 0-342.676 345.349-354.769 353.379l366.864 0c4.031-12.045 8.064-20.079 8.064-32.125 12.093-44.173 16.126-88.345 16.126-132.518 0-20.079 0-40.158-4.031-56.219-4.031-48.187-12.093-92.361-32.252-132.518l0 0L987.712 325.271zM834.517 646.526 834.517 646.526 834.517 646.526 834.517 646.526 834.517 646.526zM645.037 835.263 645.037 835.263 645.037 835.263 645.037 835.263zM479.746 718.808l258.015 257.003c8.064-4.016 20.158-8.032 28.219-16.063 36.284-20.079 72.567-48.187 104.818-80.313 12.093-12.045 28.219-28.108 40.316-44.173 28.219-36.142 52.409-76.299 68.535-116.455C983.681 718.808 495.872 718.808 479.746 718.808L479.746 718.808 479.746 718.808zM645.037 835.263 645.037 835.263 645.037 835.263 645.037 835.263 645.037 835.263zM378.958 835.263 378.958 835.263 378.958 835.263 378.958 835.263zM346.708 634.478l0 365.426c12.093 4.016 20.158 8.032 32.251 8.032 44.346 12.045 88.693 16.063 133.039 16.063 20.158 0 40.316 0 56.44-4.016 48.377-4.016 92.724-16.063 133.039-32.125 0 4.016-346.708-337.317-354.769-353.379l0 0L346.708 634.478zM378.958 835.263 378.958 835.263 378.958 835.263 378.958 835.263 378.958 835.263zM193.512 646.526 193.512 646.526 193.512 646.526 193.512 646.526zM310.425 485.9 52.41 742.903c4.031 8.032 12.093 20.079 16.126 28.108 20.158 36.142 48.377 72.282 80.629 104.407 12.093 12.045 28.219 28.108 44.346 40.158 36.284 28.108 76.599 52.204 116.913 68.267C310.425 987.859 306.394 497.946 310.425 485.9L310.425 485.9zM193.512 646.526 193.512 646.526 193.512 646.526 193.512 646.526 193.512 646.526zM193.512 381.49 193.512 381.49 193.512 381.49 193.512 381.49zM16.126 381.49C4.034 425.663 0 469.836 0 514.008c0 20.079 0 40.158 4.031 56.219 4.031 48.187 16.126 92.361 32.251 132.518 0 0 342.676-345.349 354.769-353.379L24.188 349.366c-4.031 12.045-4.031 20.079-8.064 32.125l0 0L16.126 381.49zM193.512 381.49 193.512 381.49 193.512 381.49 193.512 381.49 193.512 381.49zM378.958 196.771 378.958 196.771 378.958 196.771 378.958 196.771zM253.983 72.284c-36.284 20.079-72.567 48.187-104.818 80.313-16.126 12.045-28.219 28.108-40.316 44.173-28.219 36.142-52.409 76.299-68.535 116.455 0 0 487.81-4.015 503.935 0L286.233 56.221c-12.093 4.015-24.19 8.032-32.251 16.063l0 0L253.983 72.284zM378.958 196.771 378.958 196.771 378.958 196.771 378.958 196.771z" /></svg>